<mxfile host="app.diagrams.net" modified="2022-06-20T04:13:16.994Z" agent="5.0 (Macintosh; Intel Mac OS X 10_15_7) AppleWebKit/537.36 (KHTML, like Gecko) Chrome/102.0.0.0 Safari/537.36" etag="140S-kxffJ__Ho__bkJ4" version="19.0.0" type="github">
  <diagram id="c76gTAhKn-RRmLzn3M-g" name="Page-1">
    <mxGraphModel dx="1018" dy="604" grid="1" gridSize="10" guides="1" tooltips="1" connect="1" arrows="1" fold="1" page="1" pageScale="1" pageWidth="827" pageHeight="1169" math="0" shadow="0">
      <root>
        <mxCell id="0" />
        <mxCell id="1" parent="0" />
        <mxCell id="85qR91RJejz4coWLoDZI-1" value="" style="endArrow=classic;html=1;rounded=0;" edge="1" parent="1">
          <mxGeometry width="50" height="50" relative="1" as="geometry">
            <mxPoint x="160" y="440" as="sourcePoint" />
            <mxPoint x="640" y="440" as="targetPoint" />
          </mxGeometry>
        </mxCell>
        <mxCell id="85qR91RJejz4coWLoDZI-2" value="" style="endArrow=classic;html=1;rounded=0;" edge="1" parent="1">
          <mxGeometry width="50" height="50" relative="1" as="geometry">
            <mxPoint x="400" y="680" as="sourcePoint" />
            <mxPoint x="400" y="200" as="targetPoint" />
          </mxGeometry>
        </mxCell>
        <mxCell id="85qR91RJejz4coWLoDZI-3" value="&lt;font style=&quot;font-size: 16px;&quot;&gt;能力&lt;/font&gt;" style="text;html=1;strokeColor=none;fillColor=none;align=center;verticalAlign=middle;whiteSpace=wrap;rounded=0;" vertex="1" parent="1">
          <mxGeometry x="371" y="167" width="60" height="30" as="geometry" />
        </mxCell>
        <mxCell id="85qR91RJejz4coWLoDZI-4" value="&lt;font style=&quot;font-size: 16px;&quot;&gt;态度&lt;/font&gt;" style="text;html=1;strokeColor=none;fillColor=none;align=center;verticalAlign=middle;whiteSpace=wrap;rounded=0;" vertex="1" parent="1">
          <mxGeometry x="640" y="425" width="60" height="30" as="geometry" />
        </mxCell>
        <mxCell id="85qR91RJejz4coWLoDZI-6" value="1" style="ellipse;whiteSpace=wrap;html=1;aspect=fixed;fontSize=16;strokeColor=#666666;fontColor=#4D4D4D;" vertex="1" parent="1">
          <mxGeometry x="425" y="386" width="30" height="30" as="geometry" />
        </mxCell>
        <mxCell id="85qR91RJejz4coWLoDZI-7" value="2" style="ellipse;whiteSpace=wrap;html=1;aspect=fixed;fontSize=16;strokeColor=#666666;fontColor=#4D4D4D;" vertex="1" parent="1">
          <mxGeometry x="342" y="386" width="30" height="30" as="geometry" />
        </mxCell>
        <mxCell id="85qR91RJejz4coWLoDZI-8" value="4" style="ellipse;whiteSpace=wrap;html=1;aspect=fixed;fontSize=16;strokeColor=#666666;fontColor=#4D4D4D;" vertex="1" parent="1">
          <mxGeometry x="425" y="470" width="30" height="30" as="geometry" />
        </mxCell>
        <mxCell id="85qR91RJejz4coWLoDZI-9" value="3" style="ellipse;whiteSpace=wrap;html=1;aspect=fixed;fontSize=16;strokeColor=#666666;fontColor=#4D4D4D;" vertex="1" parent="1">
          <mxGeometry x="342" y="470" width="30" height="30" as="geometry" />
        </mxCell>
        <mxCell id="85qR91RJejz4coWLoDZI-10" value="授权、空间" style="text;html=1;strokeColor=none;fillColor=none;align=center;verticalAlign=middle;whiteSpace=wrap;rounded=0;fontSize=16;" vertex="1" parent="1">
          <mxGeometry x="440" y="290" width="140" height="30" as="geometry" />
        </mxCell>
        <mxCell id="85qR91RJejz4coWLoDZI-11" value="激励、监督" style="text;html=1;strokeColor=none;fillColor=none;align=center;verticalAlign=middle;whiteSpace=wrap;rounded=0;fontSize=16;" vertex="1" parent="1">
          <mxGeometry x="180" y="290" width="140" height="30" as="geometry" />
        </mxCell>
        <mxCell id="85qR91RJejz4coWLoDZI-12" value="培训、辅导" style="text;html=1;strokeColor=none;fillColor=none;align=center;verticalAlign=middle;whiteSpace=wrap;rounded=0;fontSize=16;" vertex="1" parent="1">
          <mxGeometry x="440" y="555" width="140" height="30" as="geometry" />
        </mxCell>
        <mxCell id="85qR91RJejz4coWLoDZI-13" value="调岗、免职" style="text;html=1;strokeColor=none;fillColor=none;align=center;verticalAlign=middle;whiteSpace=wrap;rounded=0;fontSize=16;" vertex="1" parent="1">
          <mxGeometry x="180" y="555" width="140" height="30" as="geometry" />
        </mxCell>
      </root>
    </mxGraphModel>
  </diagram>
</mxfile>
